<svg xmlns="http://www.w3.org/2000/svg" xmlns:xlink="http://www.w3.org/1999/xlink" width="3725" height="3867" viewBox="0 0 3725 3867">
  <defs>
    <style>
      .cls-1 {
        filter: url(#filter);
      }

      .cls-2, .cls-3, .cls-4 {
        fill: #1d1d1d;
      }

      .cls-2, .cls-3, .cls-4, .cls-5 {
        fill-rule: evenodd;
      }

      .cls-3, .cls-4 {
        fill-opacity: 0;
      }

      .cls-3, .cls-4, .cls-5 {
        stroke: #1d1d1d;
      }

      .cls-3 {
        stroke-linejoin: round;
        stroke-width: 21px;
      }

      .cls-4 {
        stroke-width: 20.833px;
      }

      .cls-5 {
        fill: none;
        stroke-width: 83.333px;
      }
    </style>
    <filter id="filter" filterUnits="userSpaceOnUse">
      <feFlood result="flood" flood-color="#e02bd4"/>
      <feComposite result="composite" operator="in" in2="SourceGraphic"/>
      <feBlend result="blend" in2="SourceGraphic"/>
    </filter>
  </defs>
  <g id="logo" class="cls-1">
    <path class="cls-2" d="M1670.83,2094.66c202.51,0,366.67,157.65,366.67,352.12s-164.16,352.11-366.67,352.11-366.66-157.65-366.66-352.11S1468.33,2094.66,1670.83,2094.66Z"/>
    <path id="Ellipse_1_copy" data-name="Ellipse 1 copy" class="cls-2" d="M2033.33,1048.74c202.51,0,366.67,157.65,366.67,352.11s-164.16,352.12-366.67,352.12-366.66-157.65-366.66-352.12S1830.83,1048.74,2033.33,1048.74Z"/>
    <g>
      <path class="cls-3" d="M1004.17,1302.93s17.92-103.45,287.5-170.85c50-12.5,239.73-43.13,312.5-16.67,22.91,8.34,0,26.04-25,100.01s-31.25,293.14,91.66,462.54c2.45,3.37-127.7,132.52-329.16-33.34C1333.62,1638,1440.62,1318.55,1004.17,1302.93Z"/>
      <path class="cls-2" d="M1158.33,1732.13s-43.75,16.67-95.83,70.84-86.806,77.78-137.5,104.18-81.424,73.27-54.167,87.5,75.868-21.53,79.167-25,25.868-11.11,29.167,0S878.034,2079.53,887.5,2136.33c1.042,6.25,34.2,26.39,100-58.34s80.68-103.38,95.83-87.5c4.2,4.39-90.795,122.23-83.33,179.18s39.41,47.22,62.5,0,59.2-88.2,70.83-104.18,33.16-49.66,41.67-50-30.38,78.48-33.33,125.01-0.18,54.52,8.33,62.51,31.08,0.34,50-37.51,52.95-85.08,75-129.18,84.2-105.91,137.5-62.5,100.73,83.48,126.04,48.96c11.46-15.62-24.13-67.37-55.21-111.47s-39.75-57.99-50-91.67S1308.33,1662.33,1158.33,1732.13Z"/>
      <path class="cls-4" d="M954.167,1907.15c188.693,0,341.663,154.84,341.663,345.86s-152.97,345.86-341.663,345.86S612.5,2444.02,612.5,2253.01,765.469,1907.15,954.167,1907.15Z"/>
      <path class="cls-2" d="M1033.33,1407.1c103.56,0,187.5,83.02,187.5,185.44,0,20.61,9.44,63.09-9.68,58.97-45.75-9.84-186.78-4.8-177.82,126.46,0.55,8.03-15.98-.5-23.77-1.48-92.329-11.55-163.727-89.51-163.727-183.95C845.833,1490.12,929.78,1407.1,1033.33,1407.1Z"/>
    </g>
    <g id="Group_1_copy" data-name="Group 1 copy">
      <path class="cls-3" d="M2702.4,2564.97s-18.53,103.45-289.01,166.84c-50.17,11.75-240.44,39.51-313.2,11.84-22.92-8.72.14-26.12,25.6-99.9s32.94-293.47-89.28-465.25c-2.44-3.42,128.68-130.89,329.62,38.56C2374.15,2223.83,2265.17,2542.49,2702.4,2564.97Z"/>
      <path class="cls-2" d="M2550.31,2132.17s43.92-16.03,96.41-69.54,87.4-76.64,138.34-102.32,81.99-72.2,54.76-86.9-76.13,20.4-79.46,23.83-25.98,10.74-29.22-.45,101.94-108.61,92.77-165.72c-1.01-6.28-34.12-26.99-100.52,56.94s-81.41,102.42-96.51,86.26c-4.17-4.47,91.66-121.15,84.49-178.38s-39.22-47.97-62.62-.97-59.8,87.52-71.55,103.36-33.5,49.27-42.02,49.49,30.87-78.22,34.09-124.84,0.47-54.66-8.01-62.81-31.13-.83-50.3,36.83-53.53,84.49-75.86,128.37-84.95,104.89-138.12,60.53-100.46-85.28-126.01-51.06c-11.57,15.49,23.8,67.93,54.7,112.63s39.51,58.78,49.59,92.71S2399.63,2199.82,2550.31,2132.17Z"/>
      <path class="cls-4" d="M2755.84,1959.86c-189.06-2.95-341.47-160.61-340.42-352.15s155.19-344.44,344.25-341.5,341.48,160.61,340.42,352.15S2944.91,1962.8,2755.84,1959.86Z"/>
      <path class="cls-2" d="M2673.75,2460.05c-103.76-1.62-187.41-86.18-186.84-188.87,0.12-20.68-9.11-63.42,10.03-58.99,45.78,10.58,187.12,7.73,178.86-124.03-0.5-8.07,16.02.75,23.82,1.85,92.44,13.02,163.55,92.31,163.02,187.02C2862.08,2379.72,2777.5,2461.66,2673.75,2460.05Z"/>
    </g>
    <path class="cls-5" d="M1862.5,432.019c798.51,0,1445.83,667.9,1445.83,1491.791s-647.32,1491.8-1445.83,1491.8S416.667,2747.71,416.667,1923.81,1063.99,432.019,1862.5,432.019Z"/>
  </g>
</svg>
