<?xml version="1.0" encoding="iso-8859-1"?>
<!-- Uploaded to: SVG Repo, www.svgrepo.com, Generator: SVG Repo Mixer Tools -->
<!DOCTYPE svg PUBLIC "-//W3C//DTD SVG 1.1//EN" "http://www.w3.org/Graphics/SVG/1.1/DTD/svg11.dtd">
<svg fill="#c44e89" version="1.1" id="Capa_1" xmlns="http://www.w3.org/2000/svg" xmlns:xlink="http://www.w3.org/1999/xlink" 
	 width="800px" height="800px" viewBox="0 0 343.456 343.457"
	 xml:space="preserve">
<g>
	<g>
		<path d="M204.149,147.758h-64.86c0.395,1.875,0.583,3.955,0.529,6.335c-0.575,23.022-25.443,144.452-25.669,169.779
			c0,0,8.077,18.999,57.566,19.572c49.49,0.576,57.569-19.572,57.569-19.572c-0.229-25.327-25.099-146.757-25.664-169.779
			C203.564,151.713,203.757,149.641,204.149,147.758z"/>
		<path d="M167.798,87.53c-15.805-16-23.955-44.952-23.955-44.952c-6.885,16.471-19.32,30.789-25.77,37.558v38.347
			c13.006,1.146,30.254,2.254,49.724,2.443V87.53z"/>
		<path d="M250.308,16.108C250.308,7.205,215.142,0,171.753,0c-43.38,0-78.549,7.205-78.549,16.108c0,0-13.812,69.066,5.752,96.683
			c1.012,1.438,2.04,2.765,3.072,4.045c2.306,0.274,5.118,0.571,8.203,0.886V76.774c-9.139-20.396-9.604-37.97-8.84-47.684
			c11.485,3.849,34.526,5.953,66.698,5.953c2.108,0,4.262-0.016,6.452-0.03c39.335-0.323,57.612-2.254,66.368-4.186
			c0.521,9.476-0.26,25.01-7.682,42.974v43.749c2.841-0.347,5.687-0.699,8.523-1.106c0.922-1.156,1.832-2.364,2.745-3.645
			c18.943-26.735,6.608-92.295,5.787-96.465C250.283,16.256,250.308,16.192,250.308,16.108z M174.471,27.154
			c-49.528,0.345-66.518-3.787-72.006-5.961c0.014-0.068,0.042-0.172,0.042-0.172c0-7.754,30.308-14.052,67.944-14.194V6.812
			c0.21,0,0.425,0.006,0.635,0.006s0.415-0.006,0.629-0.006v0.014c37.631,0.134,67.944,6.432,67.944,14.194
			c0,0,0.169,0.721,0.389,1.994C233.893,24.483,217.486,26.797,174.471,27.154z"/>
		<path d="M225.369,81.455c-5.943-6.071-19.673-21.251-27.038-38.876c0,0-8.319,25.874-22.682,42.227v36.135
			c15.697-0.06,32.584-0.777,49.72-2.524V81.455z"/>
	</g>
</g>
</svg>